<?xml version="1.0" encoding="UTF-8" standalone="no"?>
<!-- Created with Inkscape (http://www.inkscape.org/) -->

<svg
   xmlns:dc="http://purl.org/dc/elements/1.1/"
   xmlns:cc="http://creativecommons.org/ns#"
   xmlns:rdf="http://www.w3.org/1999/02/22-rdf-syntax-ns#"
   xmlns:svg="http://www.w3.org/2000/svg"
   xmlns="http://www.w3.org/2000/svg"
   xmlns:sodipodi="http://sodipodi.sourceforge.net/DTD/sodipodi-0.dtd"
   xmlns:inkscape="http://www.inkscape.org/namespaces/inkscape"
   width="128.18422"
   height="124.93889"
   id="svg2"
   version="1.1"
   inkscape:version="0.48.4 r9939"
   sodipodi:docname="hg.svg">
  <defs
     id="defs4" />
  <sodipodi:namedview
     id="base"
     pagecolor="#ffffff"
     bordercolor="#666666"
     borderopacity="1.0"
     inkscape:pageopacity="0.0"
     inkscape:pageshadow="2"
     inkscape:zoom="3.88"
     inkscape:cx="54.720266"
     inkscape:cy="60.651673"
     inkscape:document-units="px"
     inkscape:current-layer="layer1"
     showgrid="false"
     inkscape:window-width="937"
     inkscape:window-height="729"
     inkscape:window-x="31"
     inkscape:window-y="157"
     inkscape:window-maximized="0"
     fit-margin-top="0"
     fit-margin-left="0"
     fit-margin-right="0"
     fit-margin-bottom="0" />
  <metadata
     id="metadata7">
    <rdf:RDF>
      <cc:Work
         rdf:about="">
        <dc:format>image/svg+xml</dc:format>
        <dc:type
           rdf:resource="http://purl.org/dc/dcmitype/StillImage" />
        <dc:title />
      </cc:Work>
    </rdf:RDF>
  </metadata>
  <g
     inkscape:label="Layer 1"
     inkscape:groupmode="layer"
     id="layer1"
     transform="translate(2281.4874,-2865.2639)">
    <path
       style="fill:#000000"
       d="m -2202.6718,2990.1744 c -1.1615,-0.077 -2.1786,-0.2275 -3.1858,-0.4614 -3.5912,-0.8333 -6.4859,-2.6947 -8.2041,-5.2701 -1.0201,-1.5315 -1.5841,-3.1912 -1.7384,-5.1187 -0.019,-0.4514 -0.019,-1.5252 0.021,-2.0561 0.1612,-1.6039 0.534,-3.1873 1.2072,-5.1497 0.6299,-1.8332 1.5595,-4.0272 3.1913,-7.5331 1.7837,-3.832 2.6788,-5.8832 3.3446,-7.6689 1.0341,-2.7601 1.6063,-5.0424 1.7943,-7.1503 0.057,-0.6105 0.066,-1.7423 0.021,-2.2463 -0.082,-1.2075 -0.3211,-2.4019 -0.6662,-3.3644 -0.493,-1.3744 -1.1917,-2.5722 -2.2166,-3.7993 -0.3227,-0.3859 -1.1646,-1.2371 -1.5836,-1.6011 -2.8937,-2.5127 -6.9324,-4.4765 -12.7379,-6.1912 -2.2849,-0.6743 -3.1112,-0.9419 -4.5811,-1.4896 -5.2567,-1.9535 -9.9303,-4.6937 -13.7944,-8.0918 -0.8122,-0.7145 -2.0394,-1.9133 -2.7562,-2.6935 -4.854,-5.2825 -7.7606,-11.5964 -8.3925,-18.226 -0.095,-1.0229 -0.1142,-1.3992 -0.1131,-2.7049 0.019,-1.257 0.021,-1.5805 0.096,-2.5316 0.2781,-3.0559 1.0569,-6.035 2.3173,-8.8571 0.436,-0.9785 0.7612,-1.6144 1.3976,-2.7388 0.1992,-0.3521 0.461,-0.8197 0.5818,-1.0372 1.7565,-3.194 4.2374,-6.1723 7.2475,-8.7041 5.1633,-4.3412 11.8646,-7.3957 19.7555,-9.0024 2.8658,-0.5846 5.8551,-0.9731 8.7336,-1.1373 2.2738,-0.13 4.8958,-0.1119 7.0879,0.054 6.1605,0.4521 11.9216,1.9148 17.5107,4.4457 0.7676,0.348 2.5317,1.23 3.2736,1.6364 3.6614,2.0073 7.0374,4.3936 10.1511,7.1791 1.1785,1.0536 2.9623,2.8096 3.9792,3.9155 4.0681,4.4203 7.4865,9.3955 10.2396,14.9051 5.8683,11.7383 8.3591,25.1003 7.0451,37.8006 -0.6498,6.2737 -2.2271,12.2899 -4.6672,17.7951 -0.7452,1.6767 -1.4524,3.082 -2.4384,4.8403 -0.2516,0.448 -0.563,1.0037 -0.6934,1.2347 -1.1445,2.0444 -3.0177,4.9873 -4.7157,7.4052 -3.4911,4.9741 -7.3357,9.367 -11.2691,12.8735 -6.3385,5.6509 -13.0624,9.2199 -19.5606,10.381 -0.8946,0.1596 -1.6943,0.262 -2.6549,0.3396 -0.647,0.057 -2.4476,0.061 -3.0624,0.021 z m -43.9249,-4.8081 c -3.846,-0.1332 -7.6446,-1.432 -10.7927,-3.6902 -4.2521,-3.0492 -7.152,-7.676 -8.0119,-12.7813 -0.8066,-4.7805 0.1102,-9.5404 2.6392,-13.7205 0.057,-0.093 0.153,-0.2685 0.2108,-0.3826 0.1606,-0.3211 0.5744,-1.0297 0.8642,-1.4802 1.1958,-1.864 2.7308,-3.5514 4.4698,-4.9147 2.8446,-2.2263 6.2091,-3.6282 9.7813,-4.075 2.0007,-0.2494 4.2459,-0.1768 6.1724,0.1994 3.5283,0.6906 6.6611,2.2231 9.3746,4.5884 0.4977,0.4332 1.3394,1.2773 1.7951,1.796 3.0714,3.5075 4.7892,7.8471 4.9332,12.4566 0.1179,3.8025 -0.7949,7.3936 -2.718,10.6874 -0.1604,0.2743 -0.3381,0.59 -0.3946,0.7039 -0.2922,0.5835 -0.9174,1.595 -1.4279,2.311 -1.0552,1.4876 -2.4491,2.9444 -3.9163,4.0955 -3.0154,2.3694 -6.6729,3.8128 -10.5094,4.148 -0.4008,0.021 -1.6147,0.086 -1.8402,0.079 -0.055,-0.021 -0.3374,-0.022 -0.6296,-0.022 z m -22.6461,-48.8031 c -2.5082,-0.1303 -5.0088,-1.0397 -7.0295,-2.5548 -0.4918,-0.3688 -0.8487,-0.6751 -1.3185,-1.1357 -1.4305,-1.3981 -2.5095,-3.0892 -3.1684,-4.9635 -1.1921,-3.3896 -0.9095,-7.1998 0.7659,-10.3511 0.1984,-0.3737 0.345,-0.6287 0.5043,-0.8749 0.051,-0.07 0.1568,-0.2748 0.2419,-0.4434 0.1816,-0.3635 0.4572,-0.8437 0.7035,-1.2237 2.0909,-3.2237 5.5236,-5.3732 9.3116,-5.8255 1.0697,-0.128 2.3457,-0.1195 3.3578,0.022 3.5517,0.4972 6.686,2.3946 8.7894,5.314 1.1776,1.6376 2.046,3.8049 2.3137,5.7742 0.097,0.7435 0.1285,2.014 0.059,2.8031 -0.1857,2.1838 -0.835,4.339 -1.8265,6.0644 -0.3077,0.5335 -0.7859,1.2201 -1.1375,1.6298 -0.063,0.08 -0.255,0.3199 -0.4129,0.5303 -1.4731,1.9759 -3.3742,3.4384 -5.6496,4.3457 -1.7246,0.6876 -3.5848,0.9876 -5.5064,0.8881 z"
       id="path2995"
       inkscape:connector-curvature="0" />
  </g>
</svg>
