<?xml version="1.0" encoding="UTF-8" standalone="no"?>
<!-- Created with Inkscape (http://www.inkscape.org/) -->

<svg
   xmlns:dc="http://purl.org/dc/elements/1.1/"
   xmlns:cc="http://creativecommons.org/ns#"
   xmlns:rdf="http://www.w3.org/1999/02/22-rdf-syntax-ns#"
   xmlns:svg="http://www.w3.org/2000/svg"
   xmlns="http://www.w3.org/2000/svg"
   xmlns:sodipodi="http://sodipodi.sourceforge.net/DTD/sodipodi-0.dtd"
   xmlns:inkscape="http://www.inkscape.org/namespaces/inkscape"
   width="5191.5459"
   height="5058.52"
   id="svg2"
   version="1.1"
   inkscape:version="0.48.4 r9939"
   sodipodi:docname="hg45.svg">
  <defs
     id="defs4" />
  <sodipodi:namedview
     id="base"
     pagecolor="#ffffff"
     bordercolor="#666666"
     borderopacity="1.0"
     inkscape:pageopacity="0.0"
     inkscape:pageshadow="2"
     inkscape:zoom="0.11"
     inkscape:cx="2656.4874"
     inkscape:cy="3809.371"
     inkscape:document-units="px"
     inkscape:current-layer="layer1"
     showgrid="false"
     inkscape:window-width="937"
     inkscape:window-height="729"
     inkscape:window-x="31"
     inkscape:window-y="157"
     inkscape:window-maximized="0"
     fit-margin-top="0"
     fit-margin-left="0"
     fit-margin-right="0"
     fit-margin-bottom="0" />
  <metadata
     id="metadata7">
    <rdf:RDF>
      <cc:Work
         rdf:about="">
        <dc:format>image/svg+xml</dc:format>
        <dc:type
           rdf:resource="http://purl.org/dc/dcmitype/StillImage" />
        <dc:title></dc:title>
      </cc:Work>
    </rdf:RDF>
  </metadata>
  <g
     inkscape:label="Layer 1"
     inkscape:groupmode="layer"
     id="layer1"
     transform="translate(2281.4874,2068.3265)">
    <path
       style="fill:#000000"
       d="m 909.71844,2989.1911 c -47.037,-3.2221 -88.2184,-9.1764 -129,-18.6518 -145.3855,-33.7794 -262.6255,-109.1094 -332.1464,-213.4134 -41.3074,-61.9746 -64.1502,-129.1882 -70.4288,-207.2324 -1.469,-18.2603 -0.7012,-61.7668 1.4696,-83.2676 6.5515,-64.8902 21.5994,-129.0598 48.8937,-208.5 25.4888,-74.185 63.1277,-163.029 129.214,-305 72.2208,-155.1495 108.4641,-238.1927 135.5145,-310.5 41.8071,-111.7528 64.9603,-204.1578 72.5376,-289.5 2.1966,-24.74 2.973,-70.561 1.5419,-91 -3.4197,-48.8415 -13.0043,-97.2268 -26.9752,-136.177 -19.9711,-55.6784 -48.2562,-104.1553 -89.752,-153.82303 -13.0603,-15.6322 -47.1711,-50.1318 -64.1302,-64.8612 -117.1687,-101.7632 -280.7003,-181.2387 -515.738699,-250.6462 -92.4995,-27.3153 -125.9824,-38.2025 -185.500001,-60.3165 -212.8308,-79.0783 -402.0403,-190.0719 -558.5,-327.6258 -32.9225,-28.9443 -82.5793,-77.4702 -111.5917,-109.0503 -196.5133,-213.905403 -314.24644,-469.5833 -339.83004,-738 -3.9463,-41.4037 -4.5787,-56.5999 -4.5565,-109.5 0.021,-50.8651 0.5395,-63.9963 4.0441,-102.5 11.2618,-123.7274 42.8146,-244.34887 93.8147,-358.63927 17.6608,-39.5774 30.8128,-65.3387 56.59824,-110.8608 8.1001,-14.3 18.6902,-33.2 23.5337,-42 71.1707,-129.308 171.6183,-249.9247 293.4875,-352.4176 208.98,-175.7536 480.4088,-299.4563 799.8527,-364.5301 116.0727,-23.6451 237.0361,-39.3931 353.6473,-46.0406 92.0204,-5.2458 198.2036,-4.5009 287,2.0133 249.37806,18.2947 482.62206,77.5259 708.99996,180.0472 31.0681,14.07 102.4839,49.7542 132.5,66.206 148.2702,81.2668 284.9342,177.9211 411,290.6757 47.7471,42.7055 119.9935,113.7675 161.1887,158.5461 164.6578,178.9807 303.0329,380.42217 414.5592,603.50007 237.5997,475.2536 338.4274,1016.3055 285.2162,1530.5 -26.2863,254.01093 -90.1906,497.63363 -188.9933,720.50003 -30.116,67.9317 -58.7819,124.8458 -98.7193,196 -10.1872,18.15 -22.8065,40.65 -28.0429,50 -46.3689,82.7953 -122.2346,201.9317 -190.9363,299.8384 -141.3248,201.402 -297.0055,379.2429 -456.2723,521.2202 -256.6597,228.7975 -528.8885,373.2683 -792,420.3114 -36.2721,6.4853 -68.6176,10.6179 -107.5,13.7345 -26.1927,2.0995 -99.12636,2.6646 -123.99996,0.9607 z m -1778.5,-194.6331 c -155.73804,-5.4343 -309.57134,-58.0347 -436.97884,-149.4169 -172.1751,-123.4915 -289.5819,-310.7763 -324.4245,-517.5152 -32.6197,-193.55 4.4762,-386.314 106.9101,-555.5438 2.3449,-3.8741 6.1708,-10.8491 8.5018,-15.5 6.5259,-13.0207 23.2378,-41.6695 34.9746,-59.9562 48.4202,-75.442 110.5884,-143.7652 181.0168,-198.9385 115.1051,-90.173 251.3676,-146.947 396.00004,-164.9942 81.0288,-10.1107 171.9311,-7.1771 249.9522,8.0665 142.8293,27.9057 269.6227,89.9634 379.5478,185.7655 20.1239,17.5384 54.2454,51.6879 72.6674,72.7268 124.350301,142.0153 193.9409014,317.7357 199.74730136,504.3739 4.78910004,153.9375 -32.18760036,299.3244 -110.05040136,432.7015 -6.4862,11.1108 -13.6688,23.9358 -15.9611,28.5 -11.877,23.6475 -37.1324,64.56 -57.8033,93.6386 -42.7813,60.1821 -99.2098,119.176 -158.5999,165.8104 -122.1011,95.8763 -270.164,154.2965 -425.4917,167.8833 -16.2338,1.42 -65.3846,3.5846 -74.5083,3.2814 -2.2,-0.073 -13.675,-0.4705 -25.5,-0.8831 z M -1785.7668,818.52367 c -101.5295,-5.2647 -202.7625,-42.0615 -284.5754,-103.4392 -19.8952,-14.9258 -34.3247,-27.3559 -53.3375,-45.9467 -57.9369,-56.651 -101.646,-125.1133 -128.3341,-201.0119 -48.2425,-137.197 -36.8212,-291.4952 31.0212,-419.085503 8.0429,-15.1262 13.9977,-25.4602 20.4072,-35.4145 1.9477,-3.025 6.3537,-11.1250004 9.791,-18.0000004 7.357,-14.7146996 18.5354,-34.1272996 28.5036,-49.4999996 84.6839,-130.597797 223.6783,-217.578997 377.0092,-235.928397 43.2812,-5.1796 94.9826,-4.8297 136,0.9205 143.6995,20.1448 270.7621,96.9981 355.8299,215.222197 47.6987,66.2898996 82.8647,154.0636 93.6649,233.785703 4.0791,30.1108 5.2083,81.5578 2.4912,113.5 -7.5228,88.4346 -33.8073,175.6893 -73.9542,245.5 -12.4364,21.6254 -31.8574,49.4657 -46.0406,66 -2.8308,3.3 -10.3484,12.975 -16.7058,21.5 -59.6531,79.9924 -136.6493,139.2056 -228.7854,175.9453 -69.7827,27.8262 -145.2006,39.986 -222.9852,35.9525 z"
       id="path2995"
       inkscape:connector-curvature="0" />
  </g>
</svg>
