<?xml version="1.0" encoding="UTF-8" standalone="no"?>
<!-- Created with Inkscape (http://www.inkscape.org/) -->

<svg
   xmlns:dc="http://purl.org/dc/elements/1.1/"
   xmlns:cc="http://creativecommons.org/ns#"
   xmlns:rdf="http://www.w3.org/1999/02/22-rdf-syntax-ns#"
   xmlns:svg="http://www.w3.org/2000/svg"
   xmlns="http://www.w3.org/2000/svg"
   xmlns:sodipodi="http://sodipodi.sourceforge.net/DTD/sodipodi-0.dtd"
   xmlns:inkscape="http://www.inkscape.org/namespaces/inkscape"
   width="128.18422"
   height="124.93889"
   id="svg2"
   version="1.1"
   inkscape:version="0.48.4 r9939"
   sodipodi:docname="hg.svg">
  <defs
     id="defs4" />
  <sodipodi:namedview
     id="base"
     pagecolor="#ffffff"
     bordercolor="#666666"
     borderopacity="1.0"
     inkscape:pageopacity="0.0"
     inkscape:pageshadow="2"
     inkscape:zoom="3.88"
     inkscape:cx="54.720266"
     inkscape:cy="60.651673"
     inkscape:document-units="px"
     inkscape:current-layer="layer1"
     showgrid="false"
     inkscape:window-width="937"
     inkscape:window-height="729"
     inkscape:window-x="31"
     inkscape:window-y="157"
     inkscape:window-maximized="0"
     fit-margin-top="0"
     fit-margin-left="0"
     fit-margin-right="0"
     fit-margin-bottom="0" />
  <metadata
     id="metadata7">
    <rdf:RDF>
      <cc:Work
         rdf:about="">
        <dc:format>image/svg+xml</dc:format>
        <dc:type
           rdf:resource="http://purl.org/dc/dcmitype/StillImage" />
        <dc:title />
      </cc:Work>
    </rdf:RDF>
  </metadata>
  <g
     inkscape:label="Layer 1"
     inkscape:groupmode="layer"
     id="layer1"
     transform="translate(2281.4874,-2865.2639)">
    <path
       style="fill:#000000"
       d="M 72.125 0 C 70.911263 -0.0090125 69.6994 0.02875 68.5625 0.09375 C 65.684 0.25795 62.6783 0.63415 59.8125 1.21875 C 51.9216 2.82545 45.2258 5.87755 40.0625 10.21875 C 37.0524 12.75055 34.569 15.7435 32.8125 18.9375 C 32.6917 19.155 32.4492 19.61665 32.25 19.96875 C 31.6136 21.09315 31.27975 21.74025 30.84375 22.71875 C 29.58335 25.54085 28.80935 28.5066 28.53125 31.5625 C 28.45625 32.5136 28.4565 32.83675 28.4375 34.09375 C 28.4364 35.39945 28.43625 35.7896 28.53125 36.8125 C 29.16315 43.4421 32.0835 49.74875 36.9375 55.03125 C 37.6543 55.81145 38.8753 57.00425 39.6875 57.71875 C 43.5516 61.11685 48.21205 63.859 53.46875 65.8125 C 54.93865 66.3602 55.7776 66.6382 58.0625 67.3125 C 63.868 69.0272 67.9188 70.9873 70.8125 73.5 C 71.2315 73.864 72.0523 74.70785 72.375 75.09375 C 73.3999 76.32085 74.10075 77.53185 74.59375 78.90625 C 74.93885 79.86875 75.19925 81.0425 75.28125 82.25 C 75.32625 82.754 75.307 83.8895 75.25 84.5 C 75.062 86.6079 74.4716 88.89615 73.4375 91.65625 C 72.7717 93.44195 71.87745 95.4805 70.09375 99.3125 C 68.46195 102.8184 67.53615 105.01055 66.90625 106.84375 C 66.23305 108.80615 65.87995 110.3961 65.71875 112 C 65.67875 112.5309 65.6685 113.6111 65.6875 114.0625 C 65.8418 115.99 66.4174 117.656 67.4375 119.1875 C 69.1557 121.7629 72.0338 123.6042 75.625 124.4375 C 76.622782 124.66921 77.633274 124.82861 78.78125 124.90625 L 78.8125 124.90625 C 79.444731 124.94495 81.203349 124.96267 81.84375 124.90625 C 82.80435 124.82865 83.6054 124.7221 84.5 124.5625 C 90.9982 123.4014 97.724 119.80715 104.0625 114.15625 C 107.9959 110.64975 111.8214 106.2866 115.3125 101.3125 C 117.0105 98.8946 118.88675 95.95065 120.03125 93.90625 C 120.16165 93.67525 120.4984 93.10425 120.75 92.65625 C 121.736 90.89795 122.4423 89.4892 123.1875 87.8125 C 125.6276 82.3073 127.19395 76.30495 127.84375 70.03125 C 129.15775 57.33095 126.64955 43.95705 120.78125 32.21875 C 118.02815 26.70915 114.6306 21.7328 110.5625 17.3125 C 109.5456 16.2066 107.741 14.45985 106.5625 13.40625 C 103.4488 10.62075 100.0989 8.22605 96.4375 6.21875 C 95.6956 5.81235 93.92385 4.94175 93.15625 4.59375 C 87.56715 2.06285 81.81675 0.5771 75.65625 0.125 C 74.5602 0.04205 73.338737 0.0090125 72.125 0 z M 13.09375 43.84375 C 12.807884 43.858742 12.517425 43.9055 12.25 43.9375 C 8.462 44.3898 5.0284 46.5263 2.9375 49.75 C 2.6912 50.13 2.4316 50.60525 2.25 50.96875 C 2.1649 51.13735 2.051 51.33625 2 51.40625 C 1.8407 51.65245 1.6984 51.90755 1.5 52.28125 C -0.1754 55.43255 -0.47335 59.26665 0.71875 62.65625 C 1.37765 64.53055 2.47575 66.19565 3.90625 67.59375 C 4.37605 68.05435 4.72695 68.3812 5.21875 68.75 C 7.23945 70.2651 9.7418 71.1822 12.25 71.3125 C 14.1716 71.412 16.0254 71.09385 17.75 70.40625 C 20.0254 69.49895 21.93315 68.0384 23.40625 66.0625 C 23.56415 65.8521 23.7495 65.61125 23.8125 65.53125 C 24.1641 65.12155 24.6298 64.43975 24.9375 63.90625 C 25.929 62.18085 26.59555 60.02755 26.78125 57.84375 C 26.85075 57.05465 26.81575 55.77475 26.71875 55.03125 C 26.45105 53.06195 25.58385 50.8876 24.40625 49.25 C 22.30285 46.3306 19.1767 44.4347 15.625 43.9375 C 14.865925 43.831375 13.951347 43.798773 13.09375 43.84375 z M 36.78125 78.90625 C 36.38714 78.902144 35.985203 78.920709 35.59375 78.9375 C 35.071813 78.959888 34.562675 79.00015 34.0625 79.0625 C 30.4903 79.5093 27.12585 80.8987 24.28125 83.125 C 22.54225 84.4883 21.0083 86.1985 19.8125 88.0625 C 19.5227 88.513 19.0981 89.21015 18.9375 89.53125 C 18.8797 89.64535 18.77575 89.81325 18.71875 89.90625 C 16.18975 94.08635 15.28715 98.8445 16.09375 103.625 C 16.95365 108.7303 19.84165 113.35705 24.09375 116.40625 C 27.24185 118.66445 31.06025 119.96055 34.90625 120.09375 C 35.19845 120.09375 35.47625 120.104 35.53125 120.125 C 35.75675 120.132 36.9742 120.05225 37.375 120.03125 C 41.2115 119.69605 44.8596 118.27565 47.875 115.90625 C 49.3422 114.75515 50.72605 113.3001 51.78125 111.8125 C 52.29175 111.0965 52.92655 110.0835 53.21875 109.5 C 53.27525 109.3861 53.43335 109.05555 53.59375 108.78125 C 55.51685 105.48745 56.4304 101.89625 56.3125 98.09375 C 56.1685 93.48425 54.47765 89.16375 51.40625 85.65625 C 50.95055 85.13755 50.09145 84.27695 49.59375 83.84375 C 46.88025 81.47845 43.74705 79.9406 40.21875 79.25 C 39.135094 79.038387 37.963581 78.918567 36.78125 78.90625 z "
       transform="translate(-2281.4874,2865.2639)"
       id="path2995" />
  </g>
</svg>
